<?xml version="1.0" encoding="UTF-8"?>
<svg version="1.1" xmlns="http://www.w3.org/2000/svg" width="704" height="710">
<path d="M0 0 C232.32 0 464.64 0 704 0 C704 234.3 704 468.6 704 710 C471.68 710 239.36 710 0 710 C0 475.7 0 241.4 0 0 Z " fill="#000000" transform="translate(0,0)"/>
<path d="M0 0 C3.28551369 0.22909194 4.73889595 0.76343232 7.203125 2.99609375 C7.87859375 3.80175781 8.5540625 4.60742188 9.25 5.4375 C9.93578125 6.24058594 10.6215625 7.04367187 11.328125 7.87109375 C14.64215882 12.09106672 14.15474486 16.00699318 14.16113281 21.17553711 C14.16858017 22.60252174 14.16858017 22.60252174 14.17617798 24.05833435 C14.19081891 27.21467809 14.19760426 30.37097159 14.203125 33.52734375 C14.20887416 35.71448265 14.21463192 37.90162152 14.22039795 40.08876038 C14.23091296 44.67790971 14.23675259 49.26704148 14.24023438 53.85620117 C14.24572499 59.74569849 14.26976312 65.6349653 14.29820633 71.52439022 C14.31679877 76.04273667 14.32203646 80.56102717 14.32357025 85.07940865 C14.32660419 87.25119858 14.33465749 89.42298736 14.34775543 91.59473991 C14.36474755 94.62836306 14.36295258 97.66141738 14.35644531 100.69506836 C14.3656601 101.59751282 14.37487488 102.49995728 14.3843689 103.42974854 C14.37879974 104.25556931 14.37323059 105.08139008 14.36749268 105.93223572 C14.36969252 107.00821974 14.36969252 107.00821974 14.3719368 108.10594082 C13.87958924 110.61318241 13.03541494 111.48701681 11 113 C8.15524301 113.32756019 5.5914179 113.46421419 2.75 113.4375 C2.01136719 113.45748047 1.27273438 113.47746094 0.51171875 113.49804688 C-7.0229702 113.49140253 -11.92898108 110.34781656 -17.54833984 105.45996094 C-20.35695032 102.63529047 -22.56717173 99.40263752 -24.8125 96.125 C-25.33674561 95.36888428 -25.86099121 94.61276855 -26.40112305 93.83374023 C-31.26673452 86.74372186 -35.7082134 79.44827707 -40 72 C-41.21481703 69.9010262 -42.42966328 67.80206931 -43.64453125 65.703125 C-46.7619431 60.31062744 -49.8698994 54.91276944 -52.97119141 49.51098633 C-55.95756982 44.32721081 -58.98306528 39.16602412 -62 34 C-62.01030746 34.97496933 -62.02061493 35.94993866 -62.03123474 36.95445251 C-62.12879945 46.12236314 -62.23151702 55.29020333 -62.33933926 64.45799923 C-62.39461048 69.17176359 -62.44803705 73.8855341 -62.49731445 78.59936523 C-62.54489624 83.14460904 -62.59723654 87.68977496 -62.65294075 92.23492622 C-62.67339243 93.97292719 -62.69210076 95.71094954 -62.70907402 97.44898796 C-62.73305604 99.87484377 -62.7631186 102.30055101 -62.79467773 104.72631836 C-62.8004332 105.45208069 -62.80618866 106.17784302 -62.81211853 106.92559814 C-62.88594784 111.88594784 -62.88594784 111.88594784 -64 113 C-65.62257544 113.0991657 -67.24939831 113.13079777 -68.875 113.1328125 C-69.85984375 113.13410156 -70.8446875 113.13539063 -71.859375 113.13671875 C-72.89578125 113.13285156 -73.9321875 113.12898438 -75 113.125 C-76.55460938 113.13080078 -76.55460938 113.13080078 -78.140625 113.13671875 C-79.12546875 113.13542969 -80.1103125 113.13414062 -81.125 113.1328125 C-82.03507813 113.13168457 -82.94515625 113.13055664 -83.8828125 113.12939453 C-86 113 -86 113 -87 112 C-87.10404705 110.61788515 -87.13960584 109.23053325 -87.14717102 107.8445282 C-87.15432632 106.94861969 -87.16148163 106.05271118 -87.16885376 105.12965393 C-87.17154266 104.13900436 -87.17423157 103.1483548 -87.17700195 102.12768555 C-87.18357315 101.09033264 -87.19014435 100.05297974 -87.19691467 98.98419189 C-87.21670223 95.53503355 -87.22832214 92.08591883 -87.23828125 88.63671875 C-87.24439454 86.87485702 -87.24439454 86.87485702 -87.25063133 85.07740211 C-87.27151496 78.86125487 -87.28580697 72.64512986 -87.29516602 66.42895508 C-87.30623772 59.99578632 -87.34064023 53.56296278 -87.38033772 47.12991619 C-87.40643645 42.19461914 -87.41485184 37.25940518 -87.41844749 32.32404518 C-87.42333059 29.95211263 -87.43499314 27.5801842 -87.45348549 25.20831871 C-87.47773399 21.89209741 -87.47693782 18.57678014 -87.4699707 15.26049805 C-87.48278076 14.27592117 -87.49559082 13.2913443 -87.50878906 12.27693176 C-87.45805072 5.66873224 -87.45805072 5.66873224 -85.21208191 2.38972473 C-81.84562918 0.27477474 -78.53129388 0.45951157 -74.6875 0.5625 C-73.58631836 0.55186523 -73.58631836 0.55186523 -72.46289062 0.54101562 C-65.14392844 0.62544021 -59.35859938 2.95140457 -53.9296875 7.921875 C-45.19466751 17.3288196 -39.07052361 28.78643852 -32.859375 39.921875 C-30.43369957 44.26988668 -27.89191599 48.53798926 -25.31689453 52.79882812 C-23.82743053 55.2884476 -22.42575085 57.81424308 -21.0625 60.375 C-18.88870028 64.41513131 -16.62737592 68.3929332 -14.30859375 72.3515625 C-13.68654053 73.41455566 -13.0644873 74.47754883 -12.42358398 75.57275391 C-11.95380127 76.37374512 -11.48401855 77.17473633 -11 78 C-11.00745743 77.18282501 -11.01491486 76.36565002 -11.02259827 75.52371216 C-11.0851717 67.7856326 -11.10408763 60.04921122 -11.07515812 52.31097603 C-11.06179576 48.33340276 -11.06473882 44.35729239 -11.10620117 40.37988281 C-11.14567001 36.53415336 -11.14066739 32.69071781 -11.10607719 28.84496689 C-11.10051994 27.38509513 -11.11042733 25.92507211 -11.13676643 24.4654274 C-11.26637472 16.70661413 -10.89084972 11.12394688 -5.49389648 5.08544922 C-4.02827419 3.68888349 -2.53804611 2.31638091 -1 1 C-0.67 0.67 -0.34 0.34 0 0 Z " fill="#FCFCFC" transform="translate(302,290)"/>
<path d="M0 0 C2.16796875 1.55859375 2.16796875 1.55859375 4.1875 3.4375 C4.86167969 4.05496094 5.53585937 4.67242187 6.23046875 5.30859375 C9.84284861 8.76148664 10.31280622 10.22473358 10.84765625 15.25 C11.84448949 22.86677848 13.91320545 29.76559203 16.4375 37 C16.83259766 38.17433594 17.22769531 39.34867187 17.63476562 40.55859375 C19.46220561 45.91624642 21.38705344 50.96786649 24 56 C32.97511211 45.38808933 37.82755233 26.62011052 38.25 12.9375 C38.60267036 8.16716929 41.59802238 5.7287434 44.9921875 2.62890625 C49.50547261 -1.03264996 49.50547261 -1.03264996 52.42578125 -0.83984375 C55.37151189 0.12120646 56.92829284 1.33560707 59.1875 3.4375 C59.86167969 4.05496094 60.53585937 4.67242187 61.23046875 5.30859375 C64.99291934 8.90493173 64.99291934 8.90493173 65.265625 12.56640625 C65.14334253 17.23949401 64.06651813 21.473138 62.75 25.9375 C62.52256104 26.73019287 62.29512207 27.52288574 62.06079102 28.33959961 C60.68570357 33.0145119 59.19124002 37.53464751 57.02099609 41.91040039 C56.01606976 43.96711118 55.09429214 46.04460473 54.18359375 48.14453125 C52.00415522 53.06550316 49.61116336 57.85279789 47.125 62.625 C46.71636719 63.43195313 46.30773437 64.23890625 45.88671875 65.0703125 C39.18033215 77.93988928 39.18033215 77.93988928 33 80 C29.71356277 80.3022451 26.42371218 80.3233843 23.125 80.375 C21.77728516 80.43107422 21.77728516 80.43107422 20.40234375 80.48828125 C15.91458286 80.54794129 13.73145722 80.55762626 10.07421875 77.76953125 C9.38972656 76.85558594 8.70523437 75.94164062 8 75 C7.42636719 74.25363281 6.85273438 73.50726563 6.26171875 72.73828125 C0.77685402 64.28641774 -3.11493856 55.26111371 -7 46 C-7.28794434 45.32324219 -7.57588867 44.64648438 -7.87255859 43.94921875 C-17.74731619 20.66508862 -17.74731619 20.66508862 -17 10 C-13.11268042 4.11012186 -7.50304456 -2.48948944 0 0 Z " fill="#FAFAFB" transform="translate(346,323)"/>
<path d="M0 0 C3.23161363 2.52602113 4.75206341 5.47587571 5.7890625 9.3984375 C6.0390625 12.8984375 6.0390625 12.8984375 5.7890625 15.3984375 C4.40123765 16.2450409 3.00336853 17.07519089 1.6015625 17.8984375 C0.82425781 18.3625 0.04695313 18.8265625 -0.75390625 19.3046875 C-3.49641507 20.52551814 -5.24178443 20.71514716 -8.2109375 20.3984375 C-8.9740625 19.9034375 -9.7371875 19.4084375 -10.5234375 18.8984375 C-14.7708272 16.52780139 -18.73045291 16.84925272 -23.328125 17.8671875 C-29.31454144 19.76476856 -32.06887573 22.89324551 -35.328125 28.2265625 C-37.90029769 34.55456257 -36.6765661 43.234366 -34.2109375 49.3984375 C-31.60198125 54.24364197 -29.34600482 56.40728895 -24.2109375 58.3984375 C-18.16803161 60.19497709 -11.73672369 60.22135667 -5.8984375 57.8359375 C-2.2109375 56.3984375 -2.2109375 56.3984375 -0.1875 56.4140625 C2.98727482 57.99517565 3.68204244 60.54431583 5.1015625 63.7109375 C5.63394531 64.86207031 6.16632813 66.01320313 6.71484375 67.19921875 C7.7890625 70.3984375 7.7890625 70.3984375 7.75 72.6796875 C6.34756671 75.18810477 4.76806599 75.6094153 2.1015625 76.5859375 C1.25207031 76.90949219 0.40257812 77.23304688 -0.47265625 77.56640625 C-13.42323231 81.50146003 -31.59697305 81.40255149 -43.6875 75.109375 C-45.99836097 73.66412081 -48.09513582 72.11472365 -50.2109375 70.3984375 C-50.84902344 69.90730469 -51.48710937 69.41617188 -52.14453125 68.91015625 C-58.41260848 63.47782265 -61.62361175 56.09809009 -62.46533203 47.9296875 C-63.2017588 35.37118714 -63.34653123 22.36984427 -54.94140625 12.2421875 C-41.85312147 -1.70289244 -18.21070198 -9.0731766 0 0 Z " fill="#FBFAFB" transform="translate(483.2109375,324.6015625)"/>
<path d="M0 0 C2.8099299 2.68677123 4.56586854 5.45432844 6.50390625 8.83984375 C6.82785873 9.40320938 7.15181122 9.96657501 7.48558044 10.54701233 C8.51570935 12.34131174 9.53903596 14.13939243 10.5625 15.9375 C11.25414356 17.14281563 11.94619672 18.34789632 12.63867188 19.55273438 C18.08757947 29.05862728 18.08757947 29.05862728 20 33 C13.30427803 33.55797683 8.69734622 32.61897757 3 29 C2.67 28.67 2.34 28.34 2 28 C2 43.84 2 59.68 2 76 C4.64 74.35 7.28 72.7 10 71 C16.59529769 68.80156744 23.11137837 69.19185487 29.375 72.1875 C33.20601382 74.35417132 36.19750225 76.55693134 39 80 C39.4640625 80.51691406 39.928125 81.03382813 40.40625 81.56640625 C44.65788745 87.03448442 44.72924992 92.54334681 44.48046875 99.30078125 C43.56749228 106.32995782 40.84392602 111.58856727 35.6875 116.4375 C28.6941471 121.74643242 21.66637371 122.90089683 13 122 C5.65796572 120.5524586 0.20399105 116.01398878 -4.390625 110.2578125 C-8.46493983 103.5724931 -8.09027718 94.85468014 -6.421875 87.42578125 C-5.49480548 84.75799077 -4.6919971 82.54033237 -2.42155457 80.76750183 C-0.1685103 77.96616029 -0.56083656 74.85177276 -0.56762695 71.4074707 C-0.5574353 70.63650055 -0.54724365 69.8655304 -0.53674316 69.07119751 C-0.50654679 66.52265214 -0.49733729 63.97448221 -0.48828125 61.42578125 C-0.47143945 59.65885665 -0.45328989 57.89194407 -0.43388367 56.12504578 C-0.3863232 51.47427119 -0.35655305 46.82354532 -0.33044434 42.17260742 C-0.30066925 37.42682268 -0.25412848 32.68120591 -0.20898438 27.93554688 C-0.12288253 18.62378567 -0.05556791 9.31198996 0 0 Z " fill="#2B0F68" transform="translate(239,323)"/>
<path d="M0 0 C5.89629345 4.03720092 9.64448164 8.96078866 11.90625 15.74609375 C12.76457805 24.48877805 12.1605056 31.52466516 6.90625 38.74609375 C1.98009683 44.19784067 -3.39863509 48.15337712 -10.84765625 49.09375 C-19.84444135 49.54186573 -25.65793327 46.7354485 -32.96875 41.80859375 C-39.08019498 35.87689715 -41.37117573 29.32336895 -41.53125 20.93359375 C-41.40244837 13.29404712 -39.58063168 8.58843424 -34.484375 2.97265625 C-24.70485151 -6.22368465 -11.30962166 -6.77311297 0 0 Z " fill="#2B0F68" transform="translate(495.09375,442.25390625)"/>
<path d="M0 0 C0.56074219 0.38800781 1.12148438 0.77601563 1.69921875 1.17578125 C3.24609375 2.16578125 3.24609375 2.16578125 4.82421875 3.17578125 C9.8671852 7.69228417 13.04823004 14.5016404 14.21484375 21.0859375 C14.56401436 29.95237685 11.33973992 37.17323132 5.4140625 43.671875 C-0.51738176 48.87371108 -7.60152836 50.58862299 -15.3125 50.52734375 C-20.27843131 49.94311654 -24.10877758 47.79293055 -28.30078125 45.17578125 C-29.69296875 44.30953125 -29.69296875 44.30953125 -31.11328125 43.42578125 C-37.83756706 36.50937299 -39.74356903 28.72700079 -39.640625 19.34765625 C-38.92618813 12.6795788 -35.86274848 7.28852933 -30.98828125 2.73828125 C-22.25124003 -3.86594905 -9.68651003 -5.90938033 0 0 Z " fill="#2B0F68" transform="translate(404.30078125,440.82421875)"/>
<path d="M0 0 C8.24742142 4.1905817 12.32569015 10.57472671 15.16796875 19.1015625 C16.16824658 28.03847095 13.84219785 34.93291125 9.04296875 42.4140625 C2.80934486 48.2411457 -2.89684525 50.41680613 -11.45703125 50.6640625 C-20.07258191 50.32602782 -24.78056034 48.54153666 -30.64453125 42.2890625 C-37.07821078 34.25430747 -37.8938223 27.31835196 -36.83203125 17.1015625 C-34.49564123 9.03724857 -28.61982973 4.37188219 -21.69921875 0.1171875 C-15.07259298 -3.4872533 -6.85622898 -2.59687257 0 0 Z " fill="#2B0F69" transform="translate(179.83203125,305.8984375)"/>
<path d="M0 0 C7.00657074 3.22153404 11.0395513 7.76840908 14.88671875 14.30859375 C17.23073257 22.25219614 16.92731165 30.22577441 13.46484375 37.796875 C9.44546803 44.2257152 3.59185489 48.76050077 -3.734375 50.72265625 C-11.85104294 52.15749183 -18.5174041 51.20777549 -25.34765625 46.4921875 C-32.03070251 41.08678244 -35.22369341 35.67905922 -36.39453125 27.16796875 C-36.77248775 19.79781701 -35.2690647 14.15506238 -30.98828125 8.12109375 C-22.73565168 -0.95679878 -11.81581413 -3.47523945 0 0 Z " fill="#2B0F69" transform="translate(311.98828125,438.87890625)"/>
<path d="M0 0 C6.35938828 3.86975542 12.06436814 10.19310441 14.4375 17.3125 C15.29582805 26.0551843 14.6917556 33.09107141 9.4375 40.3125 C4.42447253 45.86039024 -0.99890621 49.8444391 -8.609375 50.625 C-16.78297938 50.92633104 -22.21041587 49.94363282 -28.49609375 44.69921875 C-33.96314706 39.5731459 -37.1450437 34.10298212 -37.80078125 26.578125 C-37.96877227 19.75238461 -37.39817064 15.01273276 -33.5625 9.3125 C-32.985 8.425625 -32.4075 7.53875 -31.8125 6.625 C-23.72088428 -1.69138282 -10.87635894 -5.16731229 0 0 Z " fill="#2B0F68" transform="translate(492.5625,529.6875)"/>
<path d="M0 0 C0.886875 0.5775 1.77375 1.155 2.6875 1.75 C8.5791772 7.48244268 11.1447185 13.51919028 11.3125 21.6875 C11.26804437 27.84778073 10.52346011 31.96648555 7 37 C6.443125 37.886875 5.88625 38.77375 5.3125 39.6875 C0.07153039 44.92846961 -6.6608483 48.14997884 -14 48.375 C-21.7927879 48.28898689 -27.18666497 46.31594351 -33.06640625 41.203125 C-38.67696305 35.34659389 -41.00958147 29.09781905 -41.5 21.0625 C-41.18605636 12.96275406 -37.40443581 6.97317511 -31.625 1.5 C-22.53797456 -5.90092712 -9.76679526 -6.57204915 0 0 Z " fill="#2B0F68" transform="translate(585,532)"/>
<path d="M0 0 C7.05356682 4.06010187 12.35607396 10.12549198 14.625 18 C15.80309015 27.67506539 13.43481719 34.70807703 7.5 42.3125 C1.93252402 48.23459229 -4.50739126 50.17747354 -12.5 50.5 C-20.15423197 50.22487998 -25.83421769 47.23296107 -31.375 42 C-37.19652261 34.348856 -38.15618731 27.41144714 -37.375 18 C-35.95535289 10.94948367 -32.01333881 5.61011262 -26.21875 1.453125 C-17.94894868 -3.32617576 -8.76877406 -3.91796288 0 0 Z " fill="#2B0F68" transform="translate(403.375,530)"/>
<path d="M0 0 C6.44252258 3.45221965 11.37553751 9.32398229 13.5625 16.30859375 C15.19917852 24.50659953 14.43554305 32.31751206 10 39.5 C4.61233065 45.7238695 -1.21031508 49.75749171 -9.40625 50.80859375 C-17.3968168 51.21552076 -23.56316976 48.61649972 -29.8125 43.75 C-34.93651846 39.06586248 -37.51037114 32.87868096 -38.2734375 26.0546875 C-38.57884836 17.99653934 -36.8217954 11.71286283 -31.3203125 5.6484375 C-22.59267785 -2.22582843 -11.14386628 -4.31561087 0 0 Z " fill="#2B0F68" transform="translate(582,351.5)"/>
<path d="M0 0 C7.63270391 4.20194192 12.1019704 10.16884905 14.6875 18.5 C15.7980199 26.60268224 14.056644 33.93507173 9.1796875 40.54296875 C4.15160722 46.02708421 -1.30754471 49.05449465 -8.71875 49.87890625 C-15.69720233 50.11003021 -21.73603436 50.00684184 -27.3125 45.5 C-33.25262049 39.90992232 -36.7630126 35.25517939 -37.71875 26.984375 C-37.93614827 18.32467736 -37.31040988 12.04873834 -31.3125 5.5 C-21.77018929 -2.51888917 -11.66015351 -5.33698569 0 0 Z " fill="#2B0F68" transform="translate(537.3125,485.5)"/>
<path d="M0 0 C6.42110431 3.76214481 11.05197743 8.65516726 13.35546875 15.859375 C14.72762186 23.01508934 14.94592313 30.89704791 11.08984375 37.265625 C5.51372068 44.7776721 -0.56790288 49.03075119 -9.9609375 50.453125 C-17.9915409 50.88414609 -24.2371064 48.4950885 -30.30078125 43.2421875 C-35.76171814 37.51793499 -38.26300399 31.35820457 -38.6015625 23.4765625 C-38.30775135 16.13128382 -35.29385615 9.36555276 -30.2265625 4.0390625 C-21.50347541 -2.56726764 -10.29008364 -4.64573397 0 0 Z " fill="#2B0F68" transform="translate(582.2265625,440.9609375)"/>
<path d="M0 0 C8.21488843 4.24285446 12.28848899 10.56859197 15.1328125 19.1015625 C16.15469147 28.38223382 13.70217912 35.13119645 8.0078125 42.4140625 C2.67213711 48.10166541 -3.67178729 50.2537478 -11.3671875 50.6015625 C-19.14661324 50.24995004 -25.45200603 48.06816303 -30.8046875 42.2890625 C-37.21853837 33.99946279 -38.18949238 26.54886386 -36.8671875 16.1015625 C-34.2972745 8.90957154 -29.44763162 3.85457109 -22.8671875 0.1015625 C-15.63698835 -3.29744873 -7.3912365 -2.83463192 0 0 Z " fill="#2B0F68" transform="translate(536.8671875,395.8984375)"/>
<path d="M0 0 C5.90803501 3.43109374 10.98697897 8.40468345 12.9921875 15.0625 C14.30070332 22.63410613 14.45970838 30.37589722 10.859375 37.3203125 C6.63706076 43.28784996 1.51057857 47.56691438 -5.60546875 49.390625 C-14.09217038 50.2013893 -21.85802247 50.11514086 -28.7265625 44.7265625 C-35.16236459 38.79853929 -38.71179315 32.71141898 -39.10546875 23.890625 C-38.77484657 15.73907827 -35.42585251 9.0816669 -29.60546875 3.390625 C-19.90669537 -2.92127514 -10.87494607 -4.86375541 0 0 Z " fill="#2B0F68" transform="translate(448.60546875,485.609375)"/>
<path d="M0 0 C1.16767887 0.71551386 2.31687623 1.46283013 3.4375 2.25 C4.324375 2.8275 5.21125 3.405 6.125 4 C11.59796923 9.32505114 14.56242055 15.23360552 14.75 22.875 C14.65932096 31.22754757 11.81960273 37.57656962 6.22265625 43.74609375 C3.02572173 46.43935368 -0.68242358 47.80661157 -4.5625 49.25 C-5.5525 49.745 -5.5525 49.745 -6.5625 50.25 C-15.5064914 51.28134872 -22.32981625 48.98624947 -29.375 43.5 C-33.99789568 39.28469141 -37.17537047 33.12129532 -37.80078125 26.8671875 C-38.02316184 18.65080991 -36.5665266 12.71618454 -31.125 6.4375 C-30.279375 5.715625 -29.43375 4.99375 -28.5625 4.25 C-27.7375 3.528125 -26.9125 2.80625 -26.0625 2.0625 C-18.85964197 -3.15957207 -8.04468459 -3.89952268 0 0 Z " fill="#2B0F68" transform="translate(357.5625,128.75)"/>
<path d="M0 0 C6.96478437 4.66788739 10.39367819 10.18103458 13 18 C13.98667836 26.96098055 11.75536224 33.74277254 6.25 40.8125 C1.95817469 45.51931096 -4.27534426 48.66340148 -10.63671875 49.23828125 C-19.95813143 49.46505057 -26.15254613 47.46703977 -33 41 C-39.04451326 32.8830822 -39.9149117 25.98496225 -39 16 C-37.41615717 10.4865147 -34.29011023 6.76692605 -30 3 C-29.21625 2.278125 -28.4325 1.55625 -27.625 0.8125 C-19.4435011 -4.83663019 -8.65833922 -4.32916961 0 0 Z " fill="#2B0F68" transform="translate(315,174)"/>
<path d="M0 0 C5.2322996 4.27775846 8.38179949 11.08473013 9.421875 17.671875 C9.78214146 24.75711547 8.09237863 30.211503 4 36 C-0.76762651 41.19837716 -6.1526145 45.45297837 -13.296875 46.46875 C-21.25362045 46.54075675 -27.56208222 45.96901676 -34 41 C-40.05232846 34.76734146 -43.27166691 29.02939903 -43.4375 20.25 C-43.29773273 12.38192477 -41.41078795 7.78894053 -36.203125 2.00390625 C-25.02260385 -8.7517551 -12.54655443 -7.97916839 0 0 Z " fill="#2B0F68" transform="translate(186,399)"/>
<path d="M0 0 C5.8025669 4.041959 10.44538143 9.84976763 11.7421875 16.91015625 C12.64066632 25.08203507 11.22116224 32.30381754 6.19921875 38.953125 C0.23146501 45.35787672 -5.35561849 48.11129832 -14.1328125 48.47265625 C-21.72999849 48.22863529 -27.40133704 46.35723941 -33.09765625 41.265625 C-38.94240593 34.9350037 -40.87088324 28.5065857 -40.59375 19.96875 C-39.64732455 11.35187645 -36.25964438 5.94516728 -29.54296875 0.5390625 C-19.79763618 -6.40761046 -10.17820155 -5.59140163 0 0 Z " fill="#2B0F68" transform="translate(405.2578125,264.08984375)"/>
<path d="M0 0 C6.42110431 3.76214481 11.05197743 8.65516726 13.35546875 15.859375 C14.72762186 23.01508934 14.94592313 30.89704791 11.08984375 37.265625 C5.56777781 44.70484736 -0.46154006 48.9238333 -9.73828125 50.453125 C-17.76927114 50.93221074 -24.0720372 47.71355134 -30.1015625 42.6015625 C-35.53708973 36.04695614 -38.8225957 29.89907407 -38.53515625 21.140625 C-37.30631716 12.77207525 -31.98512818 5.75996738 -25.453125 0.65234375 C-18.12400709 -3.75440436 -7.69094423 -3.47228284 0 0 Z " fill="#2B0F68" transform="translate(269.2265625,128.9609375)"/>
<path d="M0 0 C7.00657074 3.22153404 11.0395513 7.76840908 14.88671875 14.30859375 C17.2157622 22.20146321 17.0147935 29.79368873 13.20703125 37.15625 C9.49628653 43.25593822 5.13778185 47.47460667 -1.8125 49.70703125 C-9.12497291 51.09863292 -16.65872565 51.13711196 -23.20703125 47.38671875 C-30.57651501 42.1505066 -34.91688575 36.11185451 -36.54296875 27.01953125 C-36.89635455 18.97480756 -34.76507845 12.27557067 -29.30859375 6.2734375 C-20.90306008 -1.32890073 -10.95916718 -3.22328446 0 0 Z " fill="#2B0F68" transform="translate(355.98828125,216.87890625)"/>
<path d="M0 0 C5.61144183 4.01114176 9.20786165 9.35106069 11 16 C12.20339436 24.47338506 10.55928482 32.07175948 5.52734375 39.0390625 C-0.08848463 45.27887181 -7.18829875 48.11639174 -15.5 48.5625 C-23.41945632 48.21574414 -29.54940249 44.91447157 -34.9375 39.1875 C-39.93743777 32.86682395 -41.67427611 26.86780625 -41.40625 18.8046875 C-40.27385286 10.98679184 -36.13067131 5.23116536 -30.03125 0.40625 C-20.39142244 -6.26747678 -10.10242173 -5.23714501 0 0 Z " fill="#2B0F68" transform="translate(228,175)"/>
<path d="M0 0 C6.25817932 3.78981377 10.6199064 8.20442434 12.9609375 15.1875 C14.12321896 24.7708396 13.14850638 32.26125718 7.8984375 40.375 C3.66147583 45.11728738 -3.90797029 48.73263245 -10.203125 49.42578125 C-18.28311584 49.66946351 -23.64903739 47.46924767 -30.2890625 43 C-36.20609572 36.94848875 -38.53819187 31.75364046 -38.6640625 23.1875 C-38.54004295 15.35616307 -36.71591576 10.13509542 -31.39453125 4.421875 C-22.53155083 -3.82089686 -10.82138813 -5.62555917 0 0 Z " fill="#2B0F68" transform="translate(137.0390625,351.8125)"/>
<path d="M0 0 C7.29460833 5.88412742 11.36768036 12.10306726 12.4375 21.42578125 C12.14143046 28.55964742 9.21351878 36.6894024 4 41.61328125 C-2.85170571 46.72582314 -10.28954385 49.85091801 -19 48.61328125 C-27.76947263 46.31060526 -33.75355428 41.72413585 -38.4375 33.98828125 C-41.61373897 26.89330588 -40.96571209 18.45929523 -38.5 11.23828125 C-35.57400982 4.90207012 -30.62782581 0.55973553 -24.3125 -2.32421875 C-16.13746596 -4.88294003 -7.25688972 -4.73565413 0 0 Z " fill="#2B0F68" transform="translate(183,130.38671875)"/>
<path d="M0 0 C5.70433413 3.02502568 10.32853865 8.17957541 13.2578125 13.89453125 C15.37864576 20.92622599 15.41721995 30.02661807 12 36.625 C7.96786222 42.67320666 2.74205484 46.75047993 -3.9375 49.5625 C-10.98799036 50.41501027 -18.92188279 50.87659863 -25.1640625 47.01953125 C-31.20268113 42.05828731 -36.34815613 36.38456495 -37.9375 28.5625 C-38.70978962 20.45345897 -36.66740864 12.66305574 -31.55078125 6.203125 C-23.03594035 -2.45603524 -11.38356918 -4.23437262 0 0 Z " fill="#2B0F68" transform="translate(268.9375,217.4375)"/>
<path d="M0 0 C4.87521547 3.88422541 8.59426682 8.65540218 9.64648438 14.92871094 C10.37057768 22.26596832 10.72593561 30.25691645 5.9375 36.296875 C-0.97263782 43.27345645 -5.75161563 47.19685182 -15.9375 47.375 C-23.72647467 47.36080554 -28.71755103 45.54813791 -34.45703125 40.328125 C-40.05581368 34.38878403 -41.83596053 28.51195755 -42.125 20.4375 C-41.86966881 11.92318675 -39.55371547 7.45600335 -33.4375 1.625 C-23.08394374 -7.00013934 -11.37309461 -7.06434511 0 0 Z " fill="#2B0F68" transform="translate(184.6875,220.0625)"/>
<path d="M0 0 C6.21101142 3.4986077 11.91107873 8.60171923 14.20703125 15.58203125 C15.59648907 22.99680149 15.88490411 30.60784714 12.125 37.3125 C7.94489794 43.32077908 2.58847499 47.51537733 -4.375 49.8125 C-13.04885243 50.89246852 -20.20639249 49.9681833 -27.375 44.8125 C-32.81506151 39.96024175 -35.94427255 34.62813611 -36.76171875 27.38671875 C-37.10184983 19.86604267 -36.67821608 14.15324731 -32.2890625 7.90234375 C-23.81707413 -1.34768437 -11.70809742 -5.56528398 0 0 Z " fill="#2B0F68" transform="translate(135.375,262.1875)"/>
<path d="M0 0 C6.02034327 4.55070915 9.49245738 10.54751992 10.6171875 18 C10.99689446 26.71273536 9.1313034 33.40349754 3.234375 39.91796875 C-3.81528408 46.49404229 -10.60867258 47.40823976 -20.09375 47.25 C-26.82340958 46.4759148 -31.39936208 43.74841863 -35.734375 38.58984375 C-40.85299326 31.24947512 -43.01961808 24.79006182 -41.86328125 15.81640625 C-39.1689092 7.52880652 -34.08413999 1.43333867 -26.73828125 -3.12109375 C-17.96575199 -6.30930416 -7.74513331 -4.91986455 0 0 Z " fill="#2B0F68" transform="translate(228.86328125,442.18359375)"/>
<path d="M0 0 C5.58199533 2.92664262 10.01811188 7.30964503 12.65234375 13.078125 C14.88975159 20.57049729 14.85075198 28.69287036 11.58984375 35.828125 C7.90158336 42.21005871 2.94453203 46.64005465 -4.12109375 48.91796875 C-12.31425372 50.6572185 -20.14449715 49.77142193 -27.34765625 45.390625 C-32.94407357 40.53196515 -36.94022437 34.86663723 -37.625 27.34375 C-37.85638216 19.31016156 -36.91747535 13.70792109 -32.78515625 6.765625 C-23.09027306 -2.68067144 -12.46460403 -4.96486332 0 0 Z " fill="#2B0F69" transform="translate(491.34765625,262.609375)"/>
<path d="M0 0 C5.88879523 3.91844219 10.87430793 9.1738339 13 16 C13.98579159 25.49110976 13.3680865 33.34913367 7.45703125 40.99609375 C2.42723298 46.5323248 -2.17728543 48.62695 -9.5625 49.34765625 C-16.20231691 49.60455393 -21.87092187 49.79708424 -27.2890625 45.62109375 C-33.36775176 39.86160507 -37.47273106 35.2849515 -38.3359375 26.6328125 C-38.43312247 17.90560214 -38.03207782 12.21261862 -31.90625 5.8125 C-23.25528344 -2.26173546 -11.17861285 -5.72422072 0 0 Z " fill="#2B0F69" transform="translate(137,440)"/>
<path d="M0 0 C0.46148437 0.38671875 0.92296875 0.7734375 1.3984375 1.171875 C7.92420181 6.38216903 14.52568169 9.53863786 22.8125 10.75 C26.18192735 11.47884776 27.93124731 12.38310749 30.0625 15.125 C33.41821614 21.52073773 32.86738036 29.03980147 32 36 C29.7294156 43.23186134 24.67946049 48.2728972 18.23046875 52.03125 C11.68684532 55.00687666 3.44577414 55.34457559 -3.40234375 53.2734375 C-5.413463 52.32384952 -7.1751854 51.26816244 -9 50 C-10.5778125 48.948125 -10.5778125 48.948125 -12.1875 47.875 C-16.84906673 43.79931324 -20.65388412 36.15339058 -21.16796875 29.984375 C-21.24676155 20.97047868 -19.11651845 14.67638284 -13 8 C-8.9654053 4.3280655 -5.56356762 2.40709031 0 2 C0 1.34 0 0.68 0 0 Z " fill="#2B1069" transform="translate(430,392)"/>
<path d="M0 0 C1.32421875 1.703125 1.32421875 1.703125 2.88671875 4.765625 C5.65662249 8.10371413 6.24919846 8.12268892 10.32421875 8.703125 C15.03949653 9.37673611 15.03949653 9.37673611 17.88671875 12.640625 C21.27109615 19.85082032 21.85689468 28.81643177 19.453125 36.48046875 C15.85170742 43.38810574 10.16737411 48.80150643 2.69140625 51.23046875 C-4.47514518 52.66141384 -12.38435713 53.01233982 -18.828125 49.16796875 C-24.51633117 44.65829156 -28.86549102 39.82125649 -30.67578125 32.703125 C-31.6537591 24.23985511 -31.5942016 16.92002815 -26.58984375 9.79296875 C-21.18263453 3.8891791 -14.01632264 -0.08288771 -6.05078125 -1.109375 C-4.91769531 -1.27373047 -4.91769531 -1.27373047 -3.76171875 -1.44140625 C-1.67578125 -1.296875 -1.67578125 -1.296875 0 0 Z " fill="#2B1068" transform="translate(351.67578125,393.296875)"/>
<path d="M0 0 C2.71872037 1.75548401 4.76625821 3.7466123 6.86328125 6.203125 C7.58515625 7.0075 8.30703125 7.811875 9.05078125 8.640625 C13.49432199 14.92287226 13.64171457 21.73593132 12.86328125 29.203125 C11.19208264 35.13813846 8.13917597 39.81759196 3.86328125 44.203125 C2.87328125 44.533125 1.88328125 44.863125 0.86328125 45.203125 C0.69828125 44.06875 0.53328125 42.934375 0.36328125 41.765625 C-1.01721903 36.22376055 -4.55069832 31.56620665 -9.13671875 28.203125 C-13.29975947 28.51408253 -15.478487 29.84656308 -18.38671875 32.78100586 C-23.7194763 39.14678158 -23.24718653 46.09449114 -23.13671875 53.95703125 C-23.14424927 55.46876608 -23.15529381 56.98048709 -23.16967773 58.49217224 C-23.19794786 62.44312147 -23.1789327 66.3924374 -23.14959717 70.34332275 C-23.12810446 74.38588777 -23.15197825 78.42816744 -23.171875 82.47070312 C-23.20420687 90.38192328 -23.18651794 98.29199721 -23.13671875 106.203125 C-25.13671875 104.203125 -25.13671875 104.203125 -25.32339478 101.83905029 C-25.28053848 100.35395966 -25.28053848 100.35395966 -25.23681641 98.83886719 C-25.21084381 97.71720154 -25.18487122 96.59553589 -25.15811157 95.43988037 C-25.12269257 94.22221985 -25.08727356 93.00455933 -25.05078125 91.75 C-25.0059948 89.18622903 -24.96308507 86.62242471 -24.921875 84.05859375 C-24.85029857 80.00460221 -24.76511905 75.95173396 -24.64306641 71.89892578 C-24.52704217 67.99549268 -24.47588209 64.09235014 -24.42578125 60.1875 C-24.37821686 58.9779364 -24.33065247 57.7683728 -24.28164673 56.52215576 C-24.08995407 50.35699033 -24.08995407 50.35699033 -26.90180969 45.14494324 C-28.91534325 43.64347008 -30.95275315 42.43442145 -33.13671875 41.203125 C-34.9765625 38.97265625 -34.9765625 38.97265625 -36.07421875 37.015625 C-36.45449219 36.36207031 -36.83476562 35.70851563 -37.2265625 35.03515625 C-40.45241529 28.54191608 -40.299801 20.12005223 -38.265625 13.26953125 C-34.97005303 6.17054508 -29.74626439 0.48503744 -22.27734375 -2.32421875 C-14.64197677 -4.01013007 -6.96877536 -3.61815759 0 0 Z " fill="#2F146B" transform="translate(315.13671875,262.796875)"/>
<path d="M0 0 C6.92681504 4.02152838 11.43227114 9.26806133 13.76953125 17.02734375 C14.14636205 21.39954727 14.0780605 25.65308455 13.76953125 30.02734375 C12.88430786 30.00377808 12.88430786 30.00377808 11.98120117 29.97973633 C9.30657539 29.91736436 6.63210261 29.87834718 3.95703125 29.83984375 C3.02826172 29.81470703 2.09949219 29.78957031 1.14257812 29.76367188 C0.24990234 29.75400391 -0.64277344 29.74433594 -1.5625 29.734375 C-2.38468018 29.71866455 -3.20686035 29.7029541 -4.05395508 29.68676758 C-6.28965922 29.86862622 -6.28965922 29.86862622 -7.99023438 31.29492188 C-9.46685038 33.35753352 -9.6475288 34.52114104 -9.7421875 37.0390625 C-9.77763672 37.79638672 -9.81308594 38.55371094 -9.84960938 39.33398438 C-9.87216797 40.11966797 -9.89472656 40.90535156 -9.91796875 41.71484375 C-9.95212891 42.51212891 -9.98628906 43.30941406 -10.02148438 44.13085938 C-10.10384979 46.09586279 -10.16883942 48.06158071 -10.23046875 50.02734375 C-19.13498666 50.20906861 -24.86278921 48.25947061 -31.3984375 42.09765625 C-37.00628894 35.76042541 -39.0347678 29.3396912 -38.65625 20.92578125 C-37.70801384 14.47081582 -34.85265571 8.64953071 -30.23046875 4.02734375 C-21.29253781 -2.35430268 -10.45066156 -4.77430223 0 0 Z " fill="#2B1069" transform="translate(225.23046875,261.97265625)"/>
<path d="M0 0 C5.86640618 3.99902163 9.57864981 8.91801116 11.6015625 15.7734375 C12.71101917 25.56678958 10.88566412 32.871203 4.7890625 40.5859375 C1.72908199 43.90930874 -1.26604633 45.9368192 -5.3984375 47.7734375 C-7.8359375 47.5234375 -7.8359375 47.5234375 -9.3984375 46.7734375 C-8.0784375 46.1134375 -6.7584375 45.4534375 -5.3984375 44.7734375 C-6.02660248 40.82394046 -7.2629904 37.57451722 -8.9609375 33.9609375 C-9.41597656 32.98511719 -9.87101562 32.00929688 -10.33984375 31.00390625 C-10.68917969 30.26785156 -11.03851563 29.53179687 -11.3984375 28.7734375 C-14.12852296 29.28189301 -16.54928521 29.83171957 -19.1484375 30.8359375 C-26.53941426 32.96795003 -33.44296972 31.97912878 -40.3984375 28.7734375 C-42.3984375 26.7734375 -42.3984375 26.7734375 -42.55078125 24.05078125 C-41.94456321 14.62684625 -40.08780633 7.90593041 -33.0234375 1.3984375 C-22.69137283 -6.54930456 -11.2566516 -6.3262976 0 0 Z " fill="#2B1069" transform="translate(495.3984375,353.2265625)"/>
<path d="M0 0 C5.02839248 3.82522926 9.81315636 8.59334889 11 15 C11.89522169 24.38282982 11.50816229 32.33831316 5.50390625 39.87890625 C3.9375 41.5625 3.9375 41.5625 1 44 C0.01 44 -0.98 44 -2 44 C-3.63041666 39.62782146 -4.29296764 35.69953619 -4.6875 31.0625 C-5.46330442 25.13760653 -6.67170861 22.06776902 -11.24609375 18.234375 C-14.65192607 15.66758878 -14.65192607 15.66758878 -18.75 15 C-24.22302764 16.68400851 -27.86212908 20.29319362 -31 25 C-31.7027989 31.60630962 -29.74709875 37.66676703 -28 44 C-34.03567546 42.07350257 -35.99772175 38.31521164 -39 33 C-41.92103114 26.89238944 -42.17347884 19.75513229 -40.16015625 13.3125 C-36.74830651 5.77656253 -31.72164298 1.13649875 -24.625 -2.9375 C-15.96011078 -5.47720891 -7.95361924 -4.23797323 0 0 Z " fill="#2C1169" transform="translate(361,308)"/>
<path d="M0 0 C5.04406968 2.97101247 9.30056266 6.65623381 11.77734375 12.046875 C11.77734375 13.036875 11.77734375 14.026875 11.77734375 15.046875 C10.54371094 15.28470703 10.54371094 15.28470703 9.28515625 15.52734375 C-3.37356904 18.17310504 -12.64266475 22.2539697 -20.53515625 32.80078125 C-23.33728132 37.24091325 -24.34464584 41.95210406 -25.22265625 47.046875 C-30.44763656 42.9079861 -34.21564851 39.06089048 -37.22265625 33.046875 C-37.1907583 31.03730442 -37.15631463 29.02716424 -37.0625 27.01953125 C-37.08831203 24.72237885 -37.08831203 24.72237885 -39.22265625 22.046875 C-37.41143217 13.68636963 -33.74395057 6.59445395 -26.66015625 1.734375 C-18.89361727 -3.25559355 -8.51146202 -3.81486247 0 0 Z " fill="#2D1169" transform="translate(447.22265625,306.953125)"/>
<path d="M0 0 C0 17.16 0 34.32 0 52 C-8.67894886 52 -13.59633077 50.86764208 -20.0859375 45.16796875 C-26.31154408 38.50893387 -28.70912938 31.91630871 -28.40625 22.8046875 C-27.28135813 15.03860706 -23.15681282 9.22601247 -17.109375 4.40625 C-11.21149184 0.4743279 -7.21567867 0 0 0 Z " fill="#2B0F68" transform="translate(215,349)"/>
<path d="M0 0 C2.56359397 0.38287442 3.77763418 0.7771022 5.6328125 2.63671875 C11.14775362 10.21615353 13.05994789 16.57824096 12 26 C9.99113419 32.94958983 6.47595815 38.75993808 0.36328125 42.69921875 C-6.01889532 46.20492137 -11.68334442 48.37850033 -19 47 C-21.28125 45.96875 -21.28125 45.96875 -23 45 C-22.59910156 44.47535156 -22.19820313 43.95070313 -21.78515625 43.41015625 C-13.57924499 32.22704363 -7.28136228 20.02868108 -2.97265625 6.85546875 C-2.14523005 4.42635811 -1.21637055 2.25274008 0 0 Z " fill="#2D1269" transform="translate(406,355)"/>
<path d="M0 0 C8.72059162 -0.56261881 15.01612677 1.36914032 22.3125 6.1875 C28.00267595 12.14233529 31.39882123 19.11001757 31.3671875 27.4296875 C30.54817391 33.16278263 28.10898164 38.63716097 26 44 C23.9747379 41.39858889 22.2653246 38.81410076 20.72265625 35.90234375 C20.08420776 34.71282104 20.08420776 34.71282104 19.43286133 33.49926758 C18.98064209 32.65388428 18.52842285 31.80850098 18.0625 30.9375 C13.59841436 22.68339728 8.7993919 14.71195238 3.70922852 6.82983398 C3.22381592 6.07774658 2.73840332 5.32565918 2.23828125 4.55078125 C1.80555908 3.88731689 1.37283691 3.22385254 0.92700195 2.5402832 C0 1 0 1 0 0 Z " fill="#2C1169" transform="translate(253,304)"/>
<path d="M0 0 C6.76085106 4.50723404 6.76085106 4.50723404 8.8125 8.5625 C9.21082031 9.32691406 9.60914063 10.09132813 10.01953125 10.87890625 C12.92658984 17.1678816 13.07232862 24.58655751 10.9375 31.1875 C8.81644623 36.12302898 4.86900828 41.56549586 0 44 C0 29.48 0 14.96 0 0 Z " fill="#2B0F68" transform="translate(316,353)"/>
<path d="M0 0 C2.88143107 2.88143107 4.49441199 5.32950256 6.50390625 8.83984375 C6.82785873 9.40320938 7.15181122 9.96657501 7.48558044 10.54701233 C8.51570935 12.34131174 9.53903596 14.13939243 10.5625 15.9375 C11.25414356 17.14281563 11.94619672 18.34789632 12.63867188 19.55273438 C18.08757947 29.05862728 18.08757947 29.05862728 20 33 C13.30427803 33.55797683 8.69734622 32.61897757 3 29 C2.67 28.67 2.34 28.34 2 28 C1.67 44.5 1.34 61 1 78 C0.67 78 0.34 78 0 78 C0 52.26 0 26.52 0 0 Z " fill="#442E76" transform="translate(239,323)"/>
<path d="M0 0 C-1.02575839 5.84682282 -2.72456852 11.18498422 -4.9375 16.6875 C-5.19031738 17.31664307 -5.44313477 17.94578613 -5.70361328 18.59399414 C-7.30160012 22.4885105 -9.07422807 26.25767903 -11 30 C-13.85153431 26.6053163 -15.63980788 23.22375449 -17 19 C-15.96828476 11.77799332 -12.12124468 6.37522064 -6.375 2.0625 C-3 0 -3 0 0 0 Z " fill="#2D126A" transform="translate(382,351)"/>
<path d="M0 0 C0.66 0.33 1.32 0.66 2 1 C1.35125916 1.44994324 0.70251831 1.89988647 0.03411865 2.36346436 C-3.07644246 6.39523765 -2.57145045 10.22287632 -2.54589844 15.18457031 C-2.55623611 16.2190329 -2.56657379 17.25349548 -2.57722473 18.31930542 C-2.60672593 21.73906947 -2.60815349 25.15824353 -2.609375 28.578125 C-2.62435164 30.9489658 -2.64107769 33.31979615 -2.65948486 35.69061279 C-2.70322814 41.93115713 -2.72317309 48.17156072 -2.73822021 54.41223145 C-2.75776602 60.78011421 -2.7997389 67.1478444 -2.83984375 73.515625 C-2.9152216 86.01036969 -2.96546731 98.50508035 -3 111 C-3.33 111 -3.66 111 -4 111 C-4.09344387 97.11808235 -4.16371339 83.23621347 -4.20724869 69.35404587 C-4.22814134 62.90828306 -4.25649018 56.46273122 -4.30175781 50.01708984 C-4.34515483 43.79903331 -4.36912446 37.58117997 -4.37950897 31.3629837 C-4.38691132 28.98825124 -4.401366 26.61353015 -4.42292023 24.23888397 C-4.4518717 20.91779877 -4.45595935 17.59755786 -4.45410156 14.27636719 C-4.46848267 13.29021927 -4.48286377 12.30407135 -4.49768066 11.28804016 C-4.45705348 4.59538116 -4.45705348 4.59538116 -1.97161865 1.35772705 C-1.3209845 0.90967712 -0.67035034 0.4616272 0 0 Z " fill="#C3BDCE" transform="translate(219,291)"/>
<path d="M0 0 C2.625 0.375 2.625 0.375 4.9375 2.0625 C6.625 4.375 6.625 4.375 7 7 C6.625 9.375 6.625 9.375 4.625 11.375 C0.96997302 11.85174265 -0.74926275 11.80820271 -3.8125 9.6875 C-5.375 7.375 -5.375 7.375 -5.25 4.75 C-4.11010786 1.65600705 -3.31544909 0.52349196 0 0 Z " fill="#280E61" transform="translate(479.375,413.625)"/>
<path d="M0 0 C3.0625 0.3125 3.0625 0.3125 4.9375 1.4375 C6.58399743 4.18166239 6.46214378 6.1819571 6.0625 9.3125 C3.0625 11.3125 3.0625 11.3125 0.5625 11.125 C-2.16895737 10.23727635 -3.32870004 9.68336309 -4.9375 7.3125 C-5.25 4.75 -5.25 4.75 -4.9375 2.3125 C-2.9375 0.3125 -2.9375 0.3125 0 0 Z " fill="#2A0F65" transform="translate(434.9375,458.6875)"/>
<path d="M0 0 C2.75387823 0.89501042 3.96886237 1.34566714 5.5 3.8125 C5.1875 7 5.1875 7 4.5 9.8125 C-1.90096618 11.14100242 -1.90096618 11.14100242 -4.4375 9.75 C-5.96880951 6.95761207 -5.89907251 4.93856798 -5.5 1.8125 C-2.5 -0.1875 -2.5 -0.1875 0 0 Z " fill="#2A0F65" transform="translate(391.5,414.1875)"/>
<path d="M0 0 C2.4375 0.8125 2.4375 0.8125 4.4375 3.8125 C4.25 6.375 4.25 6.375 3.4375 8.8125 C0.4375 10.8125 0.4375 10.8125 -2.125 10.625 C-4.5625 9.8125 -4.5625 9.8125 -6.5625 6.8125 C-6.375 4.25 -6.375 4.25 -5.5625 1.8125 C-2.5625 -0.1875 -2.5625 -0.1875 0 0 Z " fill="#270E5F" transform="translate(526.5625,370.1875)"/>
<path d="M0 0 C2.4375 0.8125 2.4375 0.8125 4.4375 3.8125 C4.25 6.375 4.25 6.375 3.4375 8.8125 C0.4375 10.8125 0.4375 10.8125 -2.125 10.625 C-4.5625 9.8125 -4.5625 9.8125 -6.5625 6.8125 C-6.375 4.25 -6.375 4.25 -5.5625 1.8125 C-2.5625 -0.1875 -2.5625 -0.1875 0 0 Z " fill="#270E5F" transform="translate(125.5625,325.1875)"/>
<path d="M0 0 C1.875 1.1875 1.875 1.1875 3 3 C2.75546876 6.34192692 2.39456443 7.60543557 0 10 C-3.625 9.625 -3.625 9.625 -7 9 C-8.33157895 3.55263158 -8.33157895 3.55263158 -6.875 1.125 C-4.36737712 -0.37957373 -2.87879197 -0.4318188 0 0 Z " fill="#2A0F65" transform="translate(260,281)"/>
<path d="M0 0 C3 0.25 3 0.25 5 2.25 C5.25 5.25 5.25 5.25 5 8.25 C3 10.25 3 10.25 0 10.5625 C-0.99 10.459375 -1.98 10.35625 -3 10.25 C-5.14915785 7.02626323 -5.38286803 5.98296326 -5 2.25 C-3 0.25 -3 0.25 0 0 Z " fill="#2A0F66" transform="translate(346,280.75)"/>
<path d="M0 0 C2 3 2 3 1.8125 5.5625 C1 8 1 8 -2 10 C-4.5625 9.8125 -4.5625 9.8125 -7 9 C-9 6 -9 6 -8.75 3.375 C-8.5025 2.59125 -8.255 1.8075 -8 1 C-5.21136993 -0.39431504 -3.07921132 -0.25660094 0 0 Z " fill="#280E60" transform="translate(261,459)"/>
<path d="M0 0 C2.875 0.6875 2.875 0.6875 3.875 1.6875 C4.0625 4.625 4.0625 4.625 3.875 7.6875 C1.875 9.6875 1.875 9.6875 -1.125 9.9375 C-4.125 9.6875 -4.125 9.6875 -6.125 7.6875 C-6.4375 4.6875 -6.4375 4.6875 -6.125 1.6875 C-3.125 -0.3125 -3.125 -0.3125 0 0 Z " fill="#2A0F66" transform="translate(303.125,414.3125)"/>
<path d="M0 0 C0.99 0.103125 1.98 0.20625 3 0.3125 C5 3.3125 5 3.3125 4.6875 6.4375 C4 9.3125 4 9.3125 3 10.3125 C0.0625 10.5 0.0625 10.5 -3 10.3125 C-5 8.3125 -5 8.3125 -5.25 5.3125 C-4.90578549 1.18192588 -4.11441953 0.42858537 0 0 Z " fill="#2A0F67" transform="translate(169,280.6875)"/>
<path d="M0 0 C1 1 1 1 1.1875 3.9375 C1 7 1 7 -1 9 C-4 9.3125 -4 9.3125 -7 9 C-9 6 -9 6 -8.75 2.875 C-8.37875 1.451875 -8.37875 1.451875 -8 0 C-5.11795733 -1.44102133 -3.08226581 -0.65580124 0 0 Z " fill="#290F64" transform="translate(350,193)"/>
<path d="M0 0 C3 0.25 3 0.25 5 2.25 C5.3633156 5.08386167 5.3568671 6.65522151 3.875 9.125 C2 10.25 2 10.25 -1.125 10 C-4 9.25 -4 9.25 -5 8.25 C-5.1875 5.3125 -5.1875 5.3125 -5 2.25 C-3 0.25 -3 0.25 0 0 Z " fill="#290E62" transform="translate(302,147.75)"/>
<path d="M0 0 C0.625 3.375 0.625 3.375 1 7 C-1 9 -1 9 -4 9.25 C-7 9 -7 9 -9 7 C-9.3633156 4.16613833 -9.3568671 2.59477849 -7.875 0.125 C-5.07848948 -1.55290631 -3.06309468 -0.74875648 0 0 Z " fill="#290F64" transform="translate(574,505)"/>
<path d="M0 0 C2.4375 0.75 2.4375 0.75 4.4375 2.75 C3.86931818 8.31818182 3.86931818 8.31818182 2.4375 9.75 C-0.5 9.9375 -0.5 9.9375 -3.5625 9.75 C-5.5625 7.75 -5.5625 7.75 -5.875 4.75 C-5.771875 3.76 -5.66875 2.77 -5.5625 1.75 C-2.5625 -0.25 -2.5625 -0.25 0 0 Z " fill="#290F64" transform="translate(392.5625,504.25)"/>
<path d="M0 0 C3.625 0.375 3.625 0.375 7 1 C8.33157895 6.44736842 8.33157895 6.44736842 6.875 8.875 C4.40522151 10.3568671 2.83386167 10.3633156 0 10 C-2 8 -2 8 -2.25 5 C-2 2 -2 2 0 0 Z " fill="#290F63" transform="translate(523,460)"/>
<path d="M0 0 C3.0625 0.1875 3.0625 0.1875 5.0625 2.1875 C5.375 5.1875 5.375 5.1875 5.0625 8.1875 C2.0625 10.1875 2.0625 10.1875 -0.5 9.9375 C-2.9375 9.1875 -2.9375 9.1875 -4.9375 7.1875 C-4.23164336 0.2701049 -4.23164336 0.2701049 0 0 Z " fill="#290E63" transform="translate(345.9375,458.8125)"/>
<path d="M0 0 C5.56818182 0.56818182 5.56818182 0.56818182 7 2 C7.1875 4.9375 7.1875 4.9375 7 8 C5 10 5 10 2 10.3125 C1.01 10.209375 0.02 10.10625 -1 10 C-3 7 -3 7 -2.75 4.4375 C-2 2 -2 2 0 0 Z " fill="#2A0F65" transform="translate(568,415)"/>
<path d="M0 0 C5.56818182 0.56818182 5.56818182 0.56818182 7 2 C7.1875 4.9375 7.1875 4.9375 7 8 C5 10 5 10 2 10.3125 C1.01 10.209375 0.02 10.10625 -1 10 C-3 7 -3 7 -2.75 4.4375 C-2 2 -2 2 0 0 Z " fill="#290F64" transform="translate(211,414)"/>
<path d="M0 0 C3.625 0.375 3.625 0.375 7 1 C8.33157895 6.44736842 8.33157895 6.44736842 6.875 8.875 C4.40522151 10.3568671 2.83386167 10.3633156 0 10 C-2 8 -2 8 -2.25 5 C-2 2 -2 2 0 0 Z " fill="#290F64" transform="translate(166,370)"/>
<path d="M0 0 C2.4375 0.75 2.4375 0.75 4.4375 2.75 C3.86931818 8.31818182 3.86931818 8.31818182 2.4375 9.75 C-0.5 9.9375 -0.5 9.9375 -3.5625 9.75 C-5.5625 7.75 -5.5625 7.75 -5.875 4.75 C-5.771875 3.76 -5.66875 2.77 -5.5625 1.75 C-2.5625 -0.25 -2.5625 -0.25 0 0 Z " fill="#290E63" transform="translate(302.5625,236.25)"/>
<path d="M0 0 C2.5625 0.3125 2.5625 0.3125 4.4375 1.5 C5.5625 3.3125 5.5625 3.3125 5.375 5.875 C4.5625 8.3125 4.5625 8.3125 2.5625 10.3125 C0.0625 10.5625 0.0625 10.5625 -2.4375 10.3125 C-4.4375 8.3125 -4.4375 8.3125 -4.6875 5.3125 C-4.37675292 1.58353509 -3.7821044 0.48488518 0 0 Z " fill="#2A0F65" transform="translate(525.4375,548.6875)"/>
<path d="M0 0 C2.5 0.25 2.5 0.25 4.5 2.25 C4.75 5.25 4.75 5.25 4.5 8.25 C2.5 10.25 2.5 10.25 0.0625 10.5625 C-2.5 10.25 -2.5 10.25 -4.375 9.0625 C-5.5 7.25 -5.5 7.25 -5.3125 4.6875 C-4.22827241 1.43481722 -3.47807945 0.34780795 0 0 Z " fill="#2A0F65" transform="translate(436.5,548.75)"/>
<path d="M0 0 C2.4375 0.8125 2.4375 0.8125 4.4375 2.8125 C4.6875 5.3125 4.6875 5.3125 4.4375 7.8125 C2.4375 9.8125 2.4375 9.8125 -0.5625 10.0625 C-3.5625 9.8125 -3.5625 9.8125 -5.5625 7.8125 C-5.93046448 4.94237704 -5.93759409 3.40475382 -4.375 0.9375 C-2.5625 -0.1875 -2.5625 -0.1875 0 0 Z " fill="#2A0F65" transform="translate(481.5625,504.1875)"/>
<path d="M0 0 C3 0.25 3 0.25 5 2.25 C5.36796448 5.12012296 5.37509409 6.65774618 3.8125 9.125 C2 10.25 2 10.25 -0.5625 10.0625 C-3 9.25 -3 9.25 -5 7.25 C-5.25 4.75 -5.25 4.75 -5 2.25 C-3 0.25 -3 0.25 0 0 Z " fill="#290F64" transform="translate(169,458.75)"/>
<path d="M0 0 C2.5 0.25 2.5 0.25 4.5 2.25 C4.75 5.25 4.75 5.25 4.5 8.25 C2.5 10.25 2.5 10.25 0.0625 10.5625 C-2.5 10.25 -2.5 10.25 -4.375 9.0625 C-5.5 7.25 -5.5 7.25 -5.3125 4.6875 C-4.22827241 1.43481722 -3.47807945 0.34780795 0 0 Z " fill="#290F63" transform="translate(124.5,413.75)"/>
<path d="M0 0 C2.5625 0.3125 2.5625 0.3125 4.4375 1.5 C5.5625 3.3125 5.5625 3.3125 5.375 5.875 C4.5625 8.3125 4.5625 8.3125 2.5625 10.3125 C0.0625 10.5625 0.0625 10.5625 -2.4375 10.3125 C-4.4375 8.3125 -4.4375 8.3125 -4.6875 5.3125 C-4.37675292 1.58353509 -3.7821044 0.48488518 0 0 Z " fill="#290F64" transform="translate(257.4375,369.6875)"/>
<path d="M0 0 C3.125 0.375 3.125 0.375 6 1 C6.625 4.375 6.625 4.375 7 8 C5 10 5 10 2 10.3125 C1.01 10.209375 0.02 10.10625 -1 10 C-3 7 -3 7 -2.75 4.4375 C-2 2 -2 2 0 0 Z " fill="#2A0F65" transform="translate(433,281)"/>
<path d="M0 0 C2.4375 0.8125 2.4375 0.8125 4.4375 2.8125 C4.6875 5.3125 4.6875 5.3125 4.4375 7.8125 C2.4375 9.8125 2.4375 9.8125 -0.5625 10.0625 C-3.5625 9.8125 -3.5625 9.8125 -5.5625 7.8125 C-5.93046448 4.94237704 -5.93759409 3.40475382 -4.375 0.9375 C-2.5625 -0.1875 -2.5625 -0.1875 0 0 Z " fill="#2A0F65" transform="translate(213.5625,236.1875)"/>
<path d="M0 0 C2.5 0.25 2.5 0.25 4.5 2.25 C4.75 5.25 4.75 5.25 4.5 8.25 C2.5 10.25 2.5 10.25 0.0625 10.5625 C-2.5 10.25 -2.5 10.25 -4.375 9.0625 C-5.5 7.25 -5.5 7.25 -5.3125 4.6875 C-4.22827241 1.43481722 -3.47807945 0.34780795 0 0 Z " fill="#2A0F65" transform="translate(257.5,191.75)"/>
<path d="M0 0 C2.5625 0.3125 2.5625 0.3125 4.4375 1.5 C5.5625 3.3125 5.5625 3.3125 5.375 5.875 C4.5625 8.3125 4.5625 8.3125 2.5625 10.3125 C0.0625 10.5625 0.0625 10.5625 -2.4375 10.3125 C-4.4375 8.3125 -4.4375 8.3125 -4.6875 5.3125 C-4.37675292 1.58353509 -3.7821044 0.48488518 0 0 Z " fill="#2A0F65" transform="translate(168.4375,191.6875)"/>
<path d="M0 0 C3 0.25 3 0.25 5 2.25 C5.36796448 5.12012296 5.37509409 6.65774618 3.8125 9.125 C2 10.25 2 10.25 -0.5625 10.0625 C-3 9.25 -3 9.25 -5 7.25 C-5.25 4.75 -5.25 4.75 -5 2.25 C-3 0.25 -3 0.25 0 0 Z " fill="#2A0F65" transform="translate(213,147.75)"/>
<path d="M0 0 C0 5.28 0 10.56 0 16 C-3.13111343 12.86888657 -4.5143519 11.46924593 -6.25 7.75 C-6.58515625 7.04359375 -6.9203125 6.3371875 -7.265625 5.609375 C-7.62914062 4.81273437 -7.62914062 4.81273437 -8 4 C-1.125 0 -1.125 0 0 0 Z " fill="#2E1469" transform="translate(291,351)"/>
<path d="M0 0 C0 3.63 0 7.26 0 11 C-5 10 -5 10 -7 8 C-6.75 4.4375 -6.75 4.4375 -6 1 C-4 0 -4 0 0 0 Z " fill="#2A0F65" transform="translate(215,325)"/>
<path d="M0 0 C0.33 0.66 0.66 1.32 1 2 C-0.98 4.31 -2.96 6.62 -5 9 C-5.99 8.67 -6.98 8.34 -8 8 C-7.04578192 6.85073734 -6.08647955 5.70569459 -5.125 4.5625 C-4.59132813 3.92441406 -4.05765625 3.28632813 -3.5078125 2.62890625 C-2 1 -2 1 0 0 Z " fill="#38206F" transform="translate(456,343)"/>
<path d="M0 0 C0.66 0.33 1.32 0.66 2 1 C1.35546875 1.48984375 0.7109375 1.9796875 0.046875 2.484375 C-2.72789277 5.89458577 -2.66800235 9.03084833 -2.75 13.25 C-2.77964844 13.99507813 -2.80929688 14.74015625 -2.83984375 15.5078125 C-2.9102343 17.33796672 -2.95741832 19.16898769 -3 21 C-3.33 21 -3.66 21 -4 21 C-4.10812003 18.24894578 -4.18734945 15.50214913 -4.25 12.75 C-4.28351563 11.97269531 -4.31703125 11.19539063 -4.3515625 10.39453125 C-4.45112665 4.57002825 -4.45112665 4.57002825 -1.984375 1.453125 C-1.00210938 0.73382813 -1.00210938 0.73382813 0 0 Z " fill="#CAC3D9" transform="translate(219,291)"/>
</svg>
